<svg version="1.1" viewBox="0.0 0.0 337.8320209973753 100.0" fill="none" stroke="none" stroke-linecap="square" stroke-miterlimit="10" xmlns:xlink="http://www.w3.org/1999/xlink" xmlns="http://www.w3.org/2000/svg"><clipPath id="p.0"><path d="m0 0l337.83203 0l0 100.0l-337.83203 0l0 -100.0z" clip-rule="nonzero"/></clipPath><g clip-path="url(#p.0)"><path fill="#000000" fill-opacity="0.0" d="m0 0l337.83203 0l0 100.0l-337.83203 0z" fill-rule="evenodd"/><path fill="#000000" fill-opacity="0.0" d="m19.524935 34.03806l41.291336 -0.18897629" fill-rule="evenodd"/><path stroke="#000000" stroke-width="1.0" stroke-linejoin="round" stroke-linecap="butt" d="m19.524935 34.03806l41.291336 -0.18897629" fill-rule="evenodd"/><path fill="#000000" fill-opacity="0.0" d="m103.191605 33.755905l0 0c0 -1.5307426 1.2409058 -2.7716541 2.7716522 -2.7716541l0 0c0.73508453 0 1.4400635 0.29201317 1.9598541 0.8118c0.519783 0.51978683 0.8117981 1.2247658 0.8117981 1.9598541l0 0c0 1.5307426 -1.2409134 2.7716522 -2.7716522 2.7716522l0 0c-1.5307465 0 -2.7716522 -1.2409096 -2.7716522 -2.7716522z" fill-rule="evenodd"/><path stroke="#000000" stroke-width="1.0" stroke-linejoin="round" stroke-linecap="butt" d="m103.191605 33.755905l0 0c0 -1.5307426 1.2409058 -2.7716541 2.7716522 -2.7716541l0 0c0.73508453 0 1.4400635 0.29201317 1.9598541 0.8118c0.519783 0.51978683 0.8117981 1.2247658 0.8117981 1.9598541l0 0c0 1.5307426 -1.2409134 2.7716522 -2.7716522 2.7716522l0 0c-1.5307465 0 -2.7716522 -1.2409096 -2.7716522 -2.7716522z" fill-rule="evenodd"/><path fill="#000000" fill-opacity="0.0" d="m108.73491 33.755905l53.38582 0" fill-rule="evenodd"/><path stroke="#000000" stroke-width="1.0" stroke-linejoin="round" stroke-linecap="butt" d="m108.73491 33.755905l53.38582 0" fill-rule="evenodd"/><path fill="#000000" fill-opacity="0.0" d="m1.519685 20.278215l30.614172 0l0 29.070868l-30.614172 0z" fill-rule="evenodd"/><path fill="#000000" d="m10.50406 36.958214l1.8125 -2.109375l-1.03125 -2.046875l0.78125 0l0.34375 0.75q0.203125 0.40625 0.359375 0.78125l1.1875 -1.53125l0.859375 0l-1.734375 2.109375l1.046875 2.046875l-0.78125 0l-0.421875 -0.84375q-0.125 -0.265625 -0.296875 -0.671875l-1.234375 1.515625l-0.890625 0z" fill-rule="nonzero"/><path fill="#000000" fill-opacity="0.0" d="m1.519685 54.72966l30.614172 0l0 29.070862l-30.614172 0z" fill-rule="evenodd"/><path fill="#000000" d="m10.519685 73.019035l0.046875 -0.671875q0.21875 0.0625 0.421875 0.0625q0.21875 0 0.34375 -0.09375q0.171875 -0.125 0.375 -0.484375l0.234375 -0.40625l-0.6875 -4.171875l0.6875 0l0.3125 2.109375q0.09375 0.609375 0.15625 1.234375l1.859375 -3.34375l0.734375 0l-2.640625 4.703125q-0.375 0.6875 -0.671875 0.90625q-0.296875 0.234375 -0.6875 0.234375q-0.25 0 -0.484375 -0.078125z" fill-rule="nonzero"/><path fill="#000000" fill-opacity="0.0" d="m123.04724 13.267716l30.614182 0l0 29.070866l-30.614182 0z" fill-rule="evenodd"/><path fill="#000000" d="m132.03162 29.947718l1.8125 -2.109375l-1.03125 -2.046875l0.78125 0l0.34375 0.75q0.203125 0.40625 0.359375 0.78125l1.1875 -1.53125l0.859375 0l-1.734375 2.109375l1.046875 2.046875l-0.78125 0l-0.421875 -0.84375q-0.125 -0.265625 -0.296875 -0.671875l-1.234375 1.515625l-0.890625 0zm5.03125 -3.703125l0.046875 -1.0625l0.203125 -0.96875l0.8125 0l-0.21875 0.96875l-0.40625 1.0625l-0.4375 0z" fill-rule="nonzero"/><path fill="#000000" fill-opacity="0.0" d="m123.04724 48.62336l30.614182 0l0 29.07087l-30.614182 0z" fill-rule="evenodd"/><path fill="#000000" d="m132.04724 66.912735l0.046875 -0.671875q0.21875 0.0625 0.421875 0.0625q0.21875 0 0.34375 -0.09375q0.171875 -0.125 0.375 -0.484375l0.234375 -0.40625l-0.6875 -4.171875l0.6875 0l0.3125 2.109375q0.09375 0.609375 0.15625 1.234375l1.859375 -3.34375l0.734375 0l-2.640625 4.703125q-0.375 0.6875 -0.671875 0.90625q-0.296875 0.234375 -0.6875 0.234375q-0.25 0 -0.484375 -0.078125zm5.015625 -5.3125l0.046875 -1.0625l0.203125 -0.96875l0.8125 0l-0.21875 0.96875l-0.40625 1.0625l-0.4375 0z" fill-rule="nonzero"/><path fill="#000000" fill-opacity="0.0" d="m285.5013 28.228346l30.614166 0l0 29.070868l-30.614166 0z" fill-rule="evenodd"/><path fill="#000000" d="m294.4857 44.908348l1.8125 -2.109375l-1.03125 -2.046875l0.78125 0l0.34375 0.75q0.203125 0.40625 0.359375 0.78125l1.1875 -1.53125l0.859375 0l-1.734375 2.109375l1.046875 2.046875l-0.78125 0l-0.421875 -0.84375q-0.125 -0.265625 -0.296875 -0.671875l-1.234375 1.515625l-0.890625 0zm4.4375 -2.8125q0 -0.40625 0.296875 -0.6875q0.296875 -0.296875 0.703125 -0.296875q0.40625 0 0.6875 0.296875q0.296875 0.28125 0.296875 0.6875q0 0.421875 -0.296875 0.71875q-0.28125 0.28125 -0.6875 0.28125q-0.40625 0 -0.703125 -0.28125q-0.296875 -0.296875 -0.296875 -0.71875zm2.3789062 4.421875l0.046875 -0.671875q0.21875 0.0625 0.421875 0.0625q0.21875 0 0.34375 -0.09375q0.171875 -0.125 0.375 -0.484375l0.234375 -0.40625l-0.6875 -4.171875l0.6875 0l0.3125 2.109375q0.09375 0.609375 0.15625 1.234375l1.859375 -3.34375l0.734375 0l-2.640625 4.703125q-0.375 0.6875 -0.671875 0.90625q-0.296875 0.234375 -0.6875 0.234375q-0.25 0 -0.484375 -0.078125z" fill-rule="nonzero"/><path fill="#000000" fill-opacity="0.0" d="m50.2231 51.412075c1.7454033 -2.8985138 10.307522 -11.85783 10.472439 -17.391079c0.16491699 -5.533245 -7.9024506 -13.173664 -9.482941 -15.808397" fill-rule="evenodd"/><path stroke="#000000" stroke-width="1.0" stroke-linejoin="round" stroke-linecap="butt" d="m50.2231 51.412075c1.7454033 -2.8985138 10.307522 -11.85783 10.472439 -17.391079c0.16491699 -5.533245 -7.9024506 -13.173664 -9.482941 -15.808397" fill-rule="evenodd"/><path fill="#000000" fill-opacity="0.0" d="m51.40945 18.409449c8.628609 2.4041996 51.936565 8.958006 51.77165 14.425196c-0.16491699 5.4671936 -43.967625 15.3149605 -52.76115 18.377953" fill-rule="evenodd"/><path stroke="#000000" stroke-width="1.0" stroke-linejoin="round" stroke-linecap="butt" d="m51.40945 18.409449c8.628609 2.4041996 51.936565 8.958006 51.77165 14.425196c-0.16491699 5.4671936 -43.967625 15.3149605 -52.76115 18.377953" fill-rule="evenodd"/><path fill="#000000" fill-opacity="0.0" d="m19.524935 69.35827l41.291336 -0.1889801" fill-rule="evenodd"/><path stroke="#000000" stroke-width="1.0" stroke-linejoin="round" stroke-linecap="butt" d="m19.524935 69.35827l41.291336 -0.1889801" fill-rule="evenodd"/><path fill="#000000" fill-opacity="0.0" d="m103.191605 69.07612l0 0c0 -1.5307465 1.2409058 -2.7716599 2.7716522 -2.7716599l0 0c0.73508453 0 1.4400635 0.29201508 1.9598541 0.8117981c0.519783 0.51979065 0.8117981 1.2247696 0.8117981 1.9598618l0 0c0 1.5307388 -1.2409134 2.7716522 -2.7716522 2.7716522l0 0c-1.5307465 0 -2.7716522 -1.2409134 -2.7716522 -2.7716522z" fill-rule="evenodd"/><path stroke="#000000" stroke-width="1.0" stroke-linejoin="round" stroke-linecap="butt" d="m103.191605 69.07612l0 0c0 -1.5307465 1.2409058 -2.7716599 2.7716522 -2.7716599l0 0c0.73508453 0 1.4400635 0.29201508 1.9598541 0.8117981c0.519783 0.51979065 0.8117981 1.2247696 0.8117981 1.9598618l0 0c0 1.5307388 -1.2409134 2.7716522 -2.7716522 2.7716522l0 0c-1.5307465 0 -2.7716522 -1.2409134 -2.7716522 -2.7716522z" fill-rule="evenodd"/><path fill="#000000" fill-opacity="0.0" d="m108.73491 69.07612l53.38582 0" fill-rule="evenodd"/><path stroke="#000000" stroke-width="1.0" stroke-linejoin="round" stroke-linecap="butt" d="m108.73491 69.07612l53.38582 0" fill-rule="evenodd"/><path fill="#000000" fill-opacity="0.0" d="m50.2231 86.732285c1.7454033 -2.8985138 10.307522 -11.857834 10.472439 -17.391075c0.16491699 -5.533249 -7.9024506 -13.173668 -9.482941 -15.808399" fill-rule="evenodd"/><path stroke="#000000" stroke-width="1.0" stroke-linejoin="round" stroke-linecap="butt" d="m50.2231 86.732285c1.7454033 -2.8985138 10.307522 -11.857834 10.472439 -17.391075c0.16491699 -5.533249 -7.9024506 -13.173668 -9.482941 -15.808399" fill-rule="evenodd"/><path fill="#000000" fill-opacity="0.0" d="m51.40945 53.72966c8.628609 2.4041977 51.936565 8.958004 51.77165 14.425194c-0.16491699 5.4671936 -43.967625 15.314964 -52.76115 18.377953" fill-rule="evenodd"/><path stroke="#000000" stroke-width="1.0" stroke-linejoin="round" stroke-linecap="butt" d="m51.40945 53.72966c8.628609 2.4041977 51.936565 8.958004 51.77165 14.425194c-0.16491699 5.4671936 -43.967625 15.314964 -52.76115 18.377953" fill-rule="evenodd"/><path fill="#000000" fill-opacity="0.0" d="m256.6658 50.049793l0 0c0 -3.1136665 2.5241394 -5.6377945 5.637787 -5.6377945l0 0c1.4952393 0 2.9292297 0.5939827 3.9865417 1.6512718c1.0572815 1.0572929 1.6512451 2.4912872 1.6512451 3.9865227l0 0c0 3.1136703 -2.524109 5.6377983 -5.637787 5.6377983l0 0c-3.1136475 0 -5.637787 -2.524128 -5.637787 -5.6377983z" fill-rule="evenodd"/><path stroke="#000000" stroke-width="1.0" stroke-linejoin="round" stroke-linecap="butt" d="m256.6658 50.049793l0 0c0 -3.1136665 2.5241394 -5.6377945 5.637787 -5.6377945l0 0c1.4952393 0 2.9292297 0.5939827 3.9865417 1.6512718c1.0572815 1.0572929 1.6512451 2.4912872 1.6512451 3.9865227l0 0c0 3.1136703 -2.524109 5.6377983 -5.637787 5.6377983l0 0c-3.1136475 0 -5.637787 -2.524128 -5.637787 -5.6377983z" fill-rule="evenodd"/><path fill="#000000" fill-opacity="0.0" d="m267.94138 50.049793l57.88977 0.3779564" fill-rule="evenodd"/><path stroke="#000000" stroke-width="1.0" stroke-linejoin="round" stroke-linecap="butt" d="m267.94138 50.049793l57.88977 0.3779564" fill-rule="evenodd"/><path fill="#000000" fill-opacity="0.0" d="m148.82414 86.00358c3.55365 -5.901367 20.98613 -24.14254 21.3219 -35.40823c0.33576965 -11.265686 -16.089386 -26.821583 -19.307266 -32.185898" fill-rule="evenodd"/><path stroke="#000000" stroke-width="1.0" stroke-linejoin="round" stroke-linecap="butt" d="m148.82414 86.00358c3.55365 -5.901367 20.98613 -24.14254 21.3219 -35.40823c0.33576965 -11.265686 -16.089386 -26.821583 -19.307266 -32.185898" fill-rule="evenodd"/><path fill="#000000" fill-opacity="0.0" d="m151.23955 18.810228c17.567856 4.894949 105.742874 18.238497 105.40709 29.3697c-0.3357849 11.131203 -89.5181 31.181263 -107.42171 37.417515" fill-rule="evenodd"/><path stroke="#000000" stroke-width="1.0" stroke-linejoin="round" stroke-linecap="butt" d="m151.23955 18.810228c17.567856 4.894949 105.742874 18.238497 105.40709 29.3697c-0.3357849 11.131203 -89.5181 31.181263 -107.42171 37.417515" fill-rule="evenodd"/></g></svg>