<svg version="1.1" viewBox="0.0 0.0 164.35958005249344 100.0" fill="none" stroke="none" stroke-linecap="square" stroke-miterlimit="10" xmlns:xlink="http://www.w3.org/1999/xlink" xmlns="http://www.w3.org/2000/svg"><clipPath id="p.0"><path d="m0 0l164.35957 0l0 100.0l-164.35957 0l0 -100.0z" clip-rule="nonzero"/></clipPath><g clip-path="url(#p.0)"><path fill="#000000" fill-opacity="0.0" d="m0 0l164.35957 0l0 100.0l-164.35957 0z" fill-rule="evenodd"/><path fill="#000000" fill-opacity="0.0" d="m13.918635 51.69685l41.291336 -0.18897629" fill-rule="evenodd"/><path stroke="#000000" stroke-width="1.0" stroke-linejoin="round" stroke-linecap="butt" d="m13.918635 51.69685l41.291336 -0.18897629" fill-rule="evenodd"/><path fill="#000000" fill-opacity="0.0" d="m97.585304 51.4147l0 0c0 -1.5307426 1.2409058 -2.771656 2.7716522 -2.771656l0 0c0.73508453 0 1.4400711 0.29201508 1.9598541 0.8117981c0.519783 0.51978683 0.8117981 1.2247696 0.8117981 1.959858l0 0c0 1.5307388 -1.2409134 2.7716522 -2.7716522 2.7716522l0 0c-1.5307465 0 -2.7716522 -1.2409134 -2.7716522 -2.7716522z" fill-rule="evenodd"/><path stroke="#000000" stroke-width="1.0" stroke-linejoin="round" stroke-linecap="butt" d="m97.585304 51.4147l0 0c0 -1.5307426 1.2409058 -2.771656 2.7716522 -2.771656l0 0c0.73508453 0 1.4400711 0.29201508 1.9598541 0.8117981c0.519783 0.51978683 0.8117981 1.2247696 0.8117981 1.959858l0 0c0 1.5307388 -1.2409134 2.7716522 -2.7716522 2.7716522l0 0c-1.5307465 0 -2.7716522 -1.2409134 -2.7716522 -2.7716522z" fill-rule="evenodd"/><path fill="#000000" fill-opacity="0.0" d="m103.12861 51.4147l53.385826 0" fill-rule="evenodd"/><path stroke="#000000" stroke-width="1.0" stroke-linejoin="round" stroke-linecap="butt" d="m103.12861 51.4147l53.385826 0" fill-rule="evenodd"/><path fill="#000000" fill-opacity="0.0" d="m-4.086614 37.937008l30.614174 0l0 29.070866l-30.614174 0z" fill-rule="evenodd"/><path fill="#000000" d="m4.897761 54.61701l1.8125 -2.109375l-1.03125 -2.046875l0.78125 0l0.34375 0.75q0.203125 0.40625 0.359375 0.78125l1.1874995 -1.53125l0.859375 0l-1.7343745 2.109375l1.0468745 2.046875l-0.7812495 0l-0.421875 -0.84375q-0.125 -0.265625 -0.296875 -0.671875l-1.234375 1.515625l-0.890625 0z" fill-rule="nonzero"/><path fill="#000000" fill-opacity="0.0" d="m117.44095 30.92651l30.614166 0l0 29.070866l-30.614166 0z" fill-rule="evenodd"/><path fill="#000000" d="m126.42532 47.60651l1.8125 -2.109375l-1.03125 -2.046875l0.78125 0l0.34375 0.75q0.203125 0.40625 0.359375 0.78125l1.1875 -1.53125l0.859375 0l-1.734375 2.109375l1.046875 2.046875l-0.78125 0l-0.421875 -0.84375q-0.125 -0.265625 -0.296875 -0.671875l-1.234375 1.515625l-0.890625 0zm5.03125 -3.703125l0.046875 -1.0625l0.203125 -0.96875l0.8125 0l-0.21875 0.96875l-0.40625 1.0625l-0.4375 0z" fill-rule="nonzero"/><path fill="#000000" fill-opacity="0.0" d="m44.6168 69.07087c1.7454071 -2.8985138 10.307522 -11.857834 10.472439 -17.391079c0.16491699 -5.533245 -7.9024467 -13.173668 -9.482937 -15.808399" fill-rule="evenodd"/><path stroke="#000000" stroke-width="1.0" stroke-linejoin="round" stroke-linecap="butt" d="m44.6168 69.07087c1.7454071 -2.8985138 10.307522 -11.857834 10.472439 -17.391079c0.16491699 -5.533245 -7.9024467 -13.173668 -9.482937 -15.808399" fill-rule="evenodd"/><path fill="#000000" fill-opacity="0.0" d="m45.80315 36.06824c8.628609 2.4042015 51.936573 8.958004 51.771656 14.425198c-0.16491699 5.46719 -43.967632 15.314957 -52.761158 18.377953" fill-rule="evenodd"/><path stroke="#000000" stroke-width="1.0" stroke-linejoin="round" stroke-linecap="butt" d="m45.80315 36.06824c8.628609 2.4042015 51.936573 8.958004 51.771656 14.425198c-0.16491699 5.46719 -43.967632 15.314957 -52.761158 18.377953" fill-rule="evenodd"/></g></svg>