<svg version="1.1" viewBox="0.0 0.0 960.0 720.0" fill="none" stroke="none" stroke-linecap="square" stroke-miterlimit="10" xmlns:xlink="http://www.w3.org/1999/xlink" xmlns="http://www.w3.org/2000/svg"><clipPath id="p.0"><path d="m0 0l960.0 0l0 720.0l-960.0 0l0 -720.0z" clip-rule="nonzero"/></clipPath><g clip-path="url(#p.0)"><path fill="#000000" fill-opacity="0.0" d="m0 0l960.0 0l0 720.0l-960.0 0z" fill-rule="evenodd"/><path fill="#000000" fill-opacity="0.0" d="m703.3779 227.45932l42.425232 0l0 0c23.430786 0 42.42517 12.923813 42.42517 28.86615c0 15.942322 -18.994385 28.86612 -42.42517 28.86612l-42.425232 0z" fill-rule="evenodd"/><path stroke="#000000" stroke-width="1.0" stroke-linejoin="round" stroke-linecap="butt" d="m703.3779 227.45932l42.425232 0l0 0c23.430786 0 42.42517 12.923813 42.42517 28.86615c0 15.942322 -18.994385 28.86612 -42.42517 28.86612l-42.425232 0z" fill-rule="evenodd"/><path fill="#000000" fill-opacity="0.0" d="m788.22833 256.32547l0 0c0 -4.348709 3.5253296 -7.8740234 7.8740234 -7.8740234l0 0c2.0883179 0 4.0911255 0.8295746 5.567749 2.306244c1.4766846 1.4766693 2.3062744 3.4794464 2.3062744 5.5677795l0 0c0 4.348694 -3.5253296 7.873993 -7.8740234 7.873993l0 0c-4.348694 0 -7.8740234 -3.525299 -7.8740234 -7.873993z" fill-rule="evenodd"/><path stroke="#000000" stroke-width="1.0" stroke-linejoin="round" stroke-linecap="butt" d="m788.22833 256.32547l0 0c0 -4.348709 3.5253296 -7.8740234 7.8740234 -7.8740234l0 0c2.0883179 0 4.0911255 0.8295746 5.567749 2.306244c1.4766846 1.4766693 2.3062744 3.4794464 2.3062744 5.5677795l0 0c0 4.348694 -3.5253296 7.873993 -7.8740234 7.873993l0 0c-4.348694 0 -7.8740234 -3.525299 -7.8740234 -7.873993z" fill-rule="evenodd"/><path fill="#000000" fill-opacity="0.0" d="m4.3727036 701.6273l384.9134 -5.322876" fill-rule="evenodd"/><path stroke="#000000" stroke-width="1.0" stroke-linejoin="round" stroke-linecap="butt" d="m4.3727036 701.6273l384.9134 -5.322876" fill-rule="evenodd"/><path fill="#000000" fill-opacity="0.0" d="m389.25735 696.31964l3.5590515 -426.86615" fill-rule="evenodd"/><path stroke="#000000" stroke-width="1.0" stroke-linejoin="round" stroke-linecap="butt" d="m389.25735 696.31964l3.5590515 -426.86615" fill-rule="evenodd"/><path fill="#000000" fill-opacity="0.0" d="m9.680387 610.05096l273.41733 -2.645691" fill-rule="evenodd"/><path stroke="#000000" stroke-width="1.0" stroke-linejoin="round" stroke-linecap="butt" d="m9.680387 610.05096l273.41733 -2.645691" fill-rule="evenodd"/><path fill="#000000" fill-opacity="0.0" d="m283.0838 607.3991l0 -217.66931" fill-rule="evenodd"/><path stroke="#000000" stroke-width="1.0" stroke-linejoin="round" stroke-linecap="butt" d="m283.0838 607.3991l0 -217.66931" fill-rule="evenodd"/><path fill="#000000" d="m209.08923 608.72705l0 0c0 -2.1743774 1.7626648 -3.9370117 3.9370117 -3.9370117l0 0c1.0441589 0 2.0455475 0.41479492 2.7838898 1.1531372c0.738327 0.73828125 1.153122 1.739685 1.153122 2.7838745l0 0c0 2.1743164 -1.7626648 3.9370117 -3.9370117 3.9370117l0 0c-2.174347 0 -3.9370117 -1.7626953 -3.9370117 -3.9370117z" fill-rule="evenodd"/><path stroke="#000000" stroke-width="1.0" stroke-linejoin="round" stroke-linecap="butt" d="m209.08923 608.72705l0 0c0 -2.1743774 1.7626648 -3.9370117 3.9370117 -3.9370117l0 0c1.0441589 0 2.0455475 0.41479492 2.7838898 1.1531372c0.738327 0.73828125 1.153122 1.739685 1.153122 2.7838745l0 0c0 2.1743164 -1.7626648 3.9370117 -3.9370117 3.9370117l0 0c-2.174347 0 -3.9370117 -1.7626953 -3.9370117 -3.9370117z" fill-rule="evenodd"/><path fill="#000000" d="m330.07086 698.9659l0 0c0 -2.1743774 1.7626648 -3.9370117 3.9370117 -3.9370117l0 0c1.0441589 0 2.0455627 0.41479492 2.7838745 1.1531372c0.7383423 0.7383423 1.1531372 1.739685 1.1531372 2.7838745l0 0c0 2.1743774 -1.7626648 3.9370117 -3.9370117 3.9370117l0 0c-2.174347 0 -3.9370117 -1.7626343 -3.9370117 -3.9370117z" fill-rule="evenodd"/><path stroke="#000000" stroke-width="1.0" stroke-linejoin="round" stroke-linecap="butt" d="m330.07086 698.9659l0 0c0 -2.1743774 1.7626648 -3.9370117 3.9370117 -3.9370117l0 0c1.0441589 0 2.0455627 0.41479492 2.7838745 1.1531372c0.7383423 0.7383423 1.1531372 1.739685 1.1531372 2.7838745l0 0c0 2.1743774 -1.7626648 3.9370117 -3.9370117 3.9370117l0 0c-2.174347 0 -3.9370117 -1.7626343 -3.9370117 -3.9370117z" fill-rule="evenodd"/><path fill="#000000" d="m210.17586 247.21523l0 0c0 -2.174347 1.7626495 -3.9370117 3.9369965 -3.9370117l0 0c1.0441589 0 2.0455627 0.41479492 2.7838898 1.153122c0.738327 0.7383423 1.153122 1.7397308 1.153122 2.7838898l0 0c0 2.174347 -1.7626495 3.9370117 -3.9370117 3.9370117l0 0c-2.174347 0 -3.9369965 -1.7626648 -3.9369965 -3.9370117z" fill-rule="evenodd"/><path stroke="#000000" stroke-width="1.0" stroke-linejoin="round" stroke-linecap="butt" d="m210.17586 247.21523l0 0c0 -2.174347 1.7626495 -3.9370117 3.9369965 -3.9370117l0 0c1.0441589 0 2.0455627 0.41479492 2.7838898 1.153122c0.738327 0.7383423 1.153122 1.7397308 1.153122 2.7838898l0 0c0 2.174347 -1.7626495 3.9370117 -3.9370117 3.9370117l0 0c-2.174347 0 -3.9369965 -1.7626648 -3.9369965 -3.9370117z" fill-rule="evenodd"/><path fill="#000000" fill-opacity="0.0" d="m184.16011 553.5853l0 -42.425232l0 0c0 -23.430786 12.923813 -42.4252 28.866135 -42.4252c15.942337 0 28.86615 18.994415 28.86615 42.4252l0 42.425232z" fill-rule="evenodd"/><path stroke="#000000" stroke-width="1.0" stroke-linejoin="round" stroke-linecap="butt" d="m184.16011 553.5853l0 -42.425232l0 0c0 -23.430786 12.923813 -42.4252 28.866135 -42.4252c15.942337 0 28.86615 18.994415 28.86615 42.4252l0 42.425232z" fill-rule="evenodd"/><path fill="#000000" fill-opacity="0.0" d="m213.02625 468.7349l0 0c-4.348694 0 -7.874008 -3.525299 -7.874008 -7.873993l0 0c0 -2.0883179 0.8295746 -4.0911255 2.306244 -5.5677795c1.476654 -1.476654 3.4794464 -2.306244 5.5677643 -2.306244l0 0c4.348694 0 7.8740234 3.5253296 7.8740234 7.8740234l0 0c0 4.348694 -3.5253296 7.873993 -7.8740234 7.873993z" fill-rule="evenodd"/><path stroke="#000000" stroke-width="1.0" stroke-linejoin="round" stroke-linecap="butt" d="m213.02625 468.7349l0 0c-4.348694 0 -7.874008 -3.525299 -7.874008 -7.873993l0 0c0 -2.0883179 0.8295746 -4.0911255 2.306244 -5.5677795c1.476654 -1.476654 3.4794464 -2.306244 5.5677643 -2.306244l0 0c4.348694 0 7.8740234 3.5253296 7.8740234 7.8740234l0 0c0 4.348694 -3.5253296 7.873993 -7.8740234 7.873993z" fill-rule="evenodd"/><path fill="#000000" fill-opacity="0.0" d="m305.14172 659.02625l0 -42.42517l0 0c0 -23.430786 12.923828 -42.425232 28.86615 -42.425232c15.942322 0 28.86615 18.994446 28.86615 42.425232l0 42.42517z" fill-rule="evenodd"/><path stroke="#000000" stroke-width="1.0" stroke-linejoin="round" stroke-linecap="butt" d="m305.14172 659.02625l0 -42.42517l0 0c0 -23.430786 12.923828 -42.425232 28.86615 -42.425232c15.942322 0 28.86615 18.994446 28.86615 42.425232l0 42.42517z" fill-rule="evenodd"/><path fill="#000000" fill-opacity="0.0" d="m334.00787 574.17584l0 0c-4.348694 0 -7.8740234 -3.5253296 -7.8740234 -7.8740234l0 0c0 -2.0883179 0.82958984 -4.0910645 2.306244 -5.567749c1.4766846 -1.4766846 3.4794617 -2.3062744 5.5677795 -2.3062744l0 0c4.348694 0 7.8740234 3.5253296 7.8740234 7.8740234l0 0c0 4.348694 -3.5253296 7.8740234 -7.8740234 7.8740234z" fill-rule="evenodd"/><path stroke="#000000" stroke-width="1.0" stroke-linejoin="round" stroke-linecap="butt" d="m334.00787 574.17584l0 0c-4.348694 0 -7.8740234 -3.5253296 -7.8740234 -7.8740234l0 0c0 -2.0883179 0.82958984 -4.0910645 2.306244 -5.567749c1.4766846 -1.4766846 3.4794617 -2.3062744 5.5677795 -2.3062744l0 0c4.348694 0 7.8740234 3.5253296 7.8740234 7.8740234l0 0c0 4.348694 -3.5253296 7.8740234 -7.8740234 7.8740234z" fill-rule="evenodd"/><path fill="#000000" fill-opacity="0.0" d="m213.02625 604.79004l0 -51.212585" fill-rule="evenodd"/><path stroke="#000000" stroke-width="1.0" stroke-linejoin="round" stroke-linecap="butt" d="m213.02625 604.79004l0 -51.212585" fill-rule="evenodd"/><path fill="#000000" fill-opacity="0.0" d="m213.02625 452.98688l2.173233 -334.86615" fill-rule="evenodd"/><path stroke="#000000" stroke-width="1.0" stroke-linejoin="round" stroke-linecap="butt" d="m213.02625 452.98688l2.173233 -334.86615" fill-rule="evenodd"/><path fill="#000000" fill-opacity="0.0" d="m334.00787 695.0289l0 -36.0" fill-rule="evenodd"/><path stroke="#000000" stroke-width="1.0" stroke-linejoin="round" stroke-linecap="butt" d="m334.00787 695.0289l0 -36.0" fill-rule="evenodd"/><path fill="#000000" fill-opacity="0.0" d="m334.00787 558.4278l1.9212646 -414.9606" fill-rule="evenodd"/><path stroke="#000000" stroke-width="1.0" stroke-linejoin="round" stroke-linecap="butt" d="m334.00787 558.4278l1.9212646 -414.9606" fill-rule="evenodd"/><path fill="#000000" fill-opacity="0.0" d="m456.91077 90.36483l42.4252 0l0 0c23.430756 0 42.4252 12.923813 42.4252 28.866142c0 15.942322 -18.994446 28.866135 -42.4252 28.866135l-42.4252 0z" fill-rule="evenodd"/><path stroke="#000000" stroke-width="1.0" stroke-linejoin="round" stroke-linecap="butt" d="m456.91077 90.36483l42.4252 0l0 0c23.430756 0 42.4252 12.923813 42.4252 28.866142c0 15.942322 -18.994446 28.866135 -42.4252 28.866135l-42.4252 0z" fill-rule="evenodd"/><path fill="#000000" fill-opacity="0.0" d="m541.76117 119.23097l0 0c0 -4.3487015 3.5253296 -7.874016 7.8740234 -7.874016l0 0c2.0883179 0 4.0910645 0.8295822 5.567749 2.306244c1.4766846 1.4766617 2.3062744 3.479454 2.3062744 5.567772l0 0c0 4.348694 -3.5253296 7.874016 -7.8740234 7.874016l0 0c-4.348694 0 -7.8740234 -3.525322 -7.8740234 -7.874016z" fill-rule="evenodd"/><path stroke="#000000" stroke-width="1.0" stroke-linejoin="round" stroke-linecap="butt" d="m541.76117 119.23097l0 0c0 -4.3487015 3.5253296 -7.874016 7.8740234 -7.874016l0 0c2.0883179 0 4.0910645 0.8295822 5.567749 2.306244c1.4766846 1.4766617 2.3062744 3.479454 2.3062744 5.567772l0 0c0 4.348694 -3.5253296 7.874016 -7.8740234 7.874016l0 0c-4.348694 0 -7.8740234 -3.525322 -7.8740234 -7.874016z" fill-rule="evenodd"/><path fill="#000000" fill-opacity="0.0" d="m337.69028 144.34908l120.72443 -2.6141663" fill-rule="evenodd"/><path stroke="#000000" stroke-width="1.0" stroke-linejoin="round" stroke-linecap="butt" d="m337.69028 144.34908l120.72443 -2.6141663" fill-rule="evenodd"/><path fill="#000000" fill-opacity="0.0" d="m215.20998 118.979004l241.70079 0.25196838" fill-rule="evenodd"/><path stroke="#000000" stroke-width="1.0" stroke-linejoin="round" stroke-linecap="butt" d="m215.20998 118.979004l241.70079 0.25196838" fill-rule="evenodd"/><path fill="#000000" fill-opacity="0.0" d="m454.73752 218.34908l42.4252 0l0 0c23.430786 0 42.425232 12.923813 42.425232 28.86615c0 15.942337 -18.994446 28.866135 -42.425232 28.866135l-42.4252 0z" fill-rule="evenodd"/><path stroke="#000000" stroke-width="1.0" stroke-linejoin="round" stroke-linecap="butt" d="m454.73752 218.34908l42.4252 0l0 0c23.430786 0 42.425232 12.923813 42.425232 28.86615c0 15.942337 -18.994446 28.866135 -42.425232 28.866135l-42.4252 0z" fill-rule="evenodd"/><path fill="#000000" fill-opacity="0.0" d="m539.58795 247.21523l0 0c0 -4.348694 3.5252686 -7.8740234 7.8739624 -7.8740234l0 0c2.0883179 0 4.0911255 0.82958984 5.56781 2.306244c1.4766235 1.4766693 2.3062134 3.4794617 2.3062134 5.5677795l0 0c0 4.348694 -3.5252686 7.874008 -7.8740234 7.874008l0 0c-4.348694 0 -7.8739624 -3.5253143 -7.8739624 -7.874008z" fill-rule="evenodd"/><path stroke="#000000" stroke-width="1.0" stroke-linejoin="round" stroke-linecap="butt" d="m539.58795 247.21523l0 0c0 -4.348694 3.5252686 -7.8740234 7.8739624 -7.8740234l0 0c2.0883179 0 4.0911255 0.82958984 5.56781 2.306244c1.4766235 1.4766693 2.3062134 3.4794617 2.3062134 5.5677795l0 0c0 4.348694 -3.5252686 7.874008 -7.8740234 7.874008l0 0c-4.348694 0 -7.8739624 -3.5253143 -7.8739624 -7.874008z" fill-rule="evenodd"/><path fill="#000000" fill-opacity="0.0" d="m393.6824 271.2021l62.11026 -4.3779297" fill-rule="evenodd"/><path stroke="#000000" stroke-width="1.0" stroke-linejoin="round" stroke-linecap="butt" d="m393.6824 271.2021l62.11026 -4.3779297" fill-rule="evenodd"/><path fill="#000000" d="m331.0315 375.19946l0 0c0 -2.174347 1.7626648 -3.9369812 3.9370117 -3.9369812l0 0c1.0441589 0 2.0455627 0.4147644 2.7838745 1.1531067c0.7383423 0.7383423 1.1531372 1.7397156 1.1531372 2.7838745l0 0c0 2.174347 -1.7626648 3.9370117 -3.9370117 3.9370117l0 0c-2.174347 0 -3.9370117 -1.7626648 -3.9370117 -3.9370117z" fill-rule="evenodd"/><path stroke="#000000" stroke-width="1.0" stroke-linejoin="round" stroke-linecap="butt" d="m331.0315 375.19946l0 0c0 -2.174347 1.7626648 -3.9369812 3.9370117 -3.9369812l0 0c1.0441589 0 2.0455627 0.4147644 2.7838745 1.1531067c0.7383423 0.7383423 1.1531372 1.7397156 1.1531372 2.7838745l0 0c0 2.174347 -1.7626648 3.9370117 -3.9370117 3.9370117l0 0c-2.174347 0 -3.9370117 -1.7626648 -3.9370117 -3.9370117z" fill-rule="evenodd"/><path fill="#000000" fill-opacity="0.0" d="m218.04987 247.21523l236.6929 0" fill-rule="evenodd"/><path stroke="#000000" stroke-width="1.0" stroke-linejoin="round" stroke-linecap="butt" d="m218.04987 247.21523l236.6929 0" fill-rule="evenodd"/><path fill="#000000" fill-opacity="0.0" d="m454.73752 346.33334l42.4252 0l0 0c23.430786 0 42.425232 12.923798 42.425232 28.86612c0 15.942352 -18.994446 28.86615 -42.425232 28.86615l-42.4252 0z" fill-rule="evenodd"/><path stroke="#000000" stroke-width="1.0" stroke-linejoin="round" stroke-linecap="butt" d="m454.73752 346.33334l42.4252 0l0 0c23.430786 0 42.425232 12.923798 42.425232 28.86612c0 15.942352 -18.994446 28.86615 -42.425232 28.86615l-42.4252 0z" fill-rule="evenodd"/><path fill="#000000" fill-opacity="0.0" d="m539.58795 375.19946l0 0c0 -4.348694 3.5252686 -7.873993 7.8739624 -7.873993l0 0c2.0883179 0 4.0911255 0.8295593 5.56781 2.306244c1.4766235 1.476654 2.3062134 3.4794312 2.3062134 5.567749l0 0c0 4.3487244 -3.5252686 7.8740234 -7.8740234 7.8740234l0 0c-4.348694 0 -7.8739624 -3.525299 -7.8739624 -7.8740234z" fill-rule="evenodd"/><path stroke="#000000" stroke-width="1.0" stroke-linejoin="round" stroke-linecap="butt" d="m539.58795 375.19946l0 0c0 -4.348694 3.5252686 -7.873993 7.8739624 -7.873993l0 0c2.0883179 0 4.0911255 0.8295593 5.56781 2.306244c1.4766235 1.476654 2.3062134 3.4794312 2.3062134 5.567749l0 0c0 4.3487244 -3.5252686 7.8740234 -7.8740234 7.8740234l0 0c-4.348694 0 -7.8739624 -3.525299 -7.8739624 -7.8740234z" fill-rule="evenodd"/><path fill="#000000" d="m279.14697 500.11285l0 0c0 -2.174347 1.7626648 -3.9370117 3.9370117 -3.9370117l0 0c1.0441589 0 2.0455627 0.41479492 2.783905 1.1531372c0.73831177 0.7383423 1.1531067 1.7397156 1.1531067 2.7838745l0 0c0 2.174347 -1.7626648 3.9370117 -3.9370117 3.9370117l0 0c-2.174347 0 -3.9370117 -1.7626648 -3.9370117 -3.9370117z" fill-rule="evenodd"/><path stroke="#000000" stroke-width="1.0" stroke-linejoin="round" stroke-linecap="butt" d="m279.14697 500.11285l0 0c0 -2.174347 1.7626648 -3.9370117 3.9370117 -3.9370117l0 0c1.0441589 0 2.0455627 0.41479492 2.783905 1.1531372c0.73831177 0.7383423 1.1531067 1.7397156 1.1531067 2.7838745l0 0c0 2.174347 -1.7626648 3.9370117 -3.9370117 3.9370117l0 0c-2.174347 0 -3.9370117 -1.7626648 -3.9370117 -3.9370117z" fill-rule="evenodd"/><path fill="#000000" fill-opacity="0.0" d="m338.90552 375.19946l115.8425 0" fill-rule="evenodd"/><path stroke="#000000" stroke-width="1.0" stroke-linejoin="round" stroke-linecap="butt" d="m338.90552 375.19946l115.8425 0" fill-rule="evenodd"/><path fill="#000000" fill-opacity="0.0" d="m284.32547 391.05774l170.58267 1.763794" fill-rule="evenodd"/><path stroke="#000000" stroke-width="1.0" stroke-linejoin="round" stroke-linecap="butt" d="m284.32547 391.05774l170.58267 1.763794" fill-rule="evenodd"/><path fill="#000000" fill-opacity="0.0" d="m454.73752 469.69815l42.4252 0l0 0c23.430786 0 42.425232 12.923828 42.425232 28.86615c0 15.942352 -18.994446 28.86612 -42.425232 28.86612l-42.4252 0z" fill-rule="evenodd"/><path stroke="#000000" stroke-width="1.0" stroke-linejoin="round" stroke-linecap="butt" d="m454.73752 469.69815l42.4252 0l0 0c23.430786 0 42.425232 12.923828 42.425232 28.86615c0 15.942352 -18.994446 28.86612 -42.425232 28.86612l-42.4252 0z" fill-rule="evenodd"/><path fill="#000000" fill-opacity="0.0" d="m539.58795 498.5643l0 0c0 -4.348694 3.5252686 -7.8740234 7.8739624 -7.8740234l0 0c2.0883179 0 4.0911255 0.82958984 5.56781 2.306244c1.4766235 1.4766846 2.3062134 3.4794617 2.3062134 5.5677795l0 0c0 4.348694 -3.5252686 7.8740234 -7.8740234 7.8740234l0 0c-4.348694 0 -7.8739624 -3.5253296 -7.8739624 -7.8740234z" fill-rule="evenodd"/><path stroke="#000000" stroke-width="1.0" stroke-linejoin="round" stroke-linecap="butt" d="m539.58795 498.5643l0 0c0 -4.348694 3.5252686 -7.8740234 7.8739624 -7.8740234l0 0c2.0883179 0 4.0911255 0.82958984 5.56781 2.306244c1.4766235 1.4766846 2.3062134 3.4794617 2.3062134 5.5677795l0 0c0 4.348694 -3.5252686 7.8740234 -7.8740234 7.8740234l0 0c-4.348694 0 -7.8739624 -3.5253296 -7.8739624 -7.8740234z" fill-rule="evenodd"/><path fill="#000000" d="m386.85303 516.6142l0 0c0 -2.1743774 1.7626343 -3.9370117 3.9370117 -3.9370117l0 0c1.0441589 0 2.0455322 0.41479492 2.7838745 1.1530762c0.7383423 0.7383423 1.1531067 1.7397461 1.1531067 2.7839355l0 0c0 2.1743164 -1.7626343 3.9370117 -3.9369812 3.9370117l0 0c-2.1743774 0 -3.9370117 -1.7626953 -3.9370117 -3.9370117z" fill-rule="evenodd"/><path stroke="#000000" stroke-width="1.0" stroke-linejoin="round" stroke-linecap="butt" d="m386.85303 516.6142l0 0c0 -2.1743774 1.7626343 -3.9370117 3.9370117 -3.9370117l0 0c1.0441589 0 2.0455322 0.41479492 2.7838745 1.1530762c0.7383423 0.7383423 1.1531067 1.7397461 1.1531067 2.7839355l0 0c0 2.1743164 -1.7626343 3.9370117 -3.9369812 3.9370117l0 0c-2.1743774 0 -3.9370117 -1.7626953 -3.9370117 -3.9370117z" fill-rule="evenodd"/><path fill="#000000" fill-opacity="0.0" d="m287.021 500.11285l167.71652 -1.5433044" fill-rule="evenodd"/><path stroke="#000000" stroke-width="1.0" stroke-linejoin="round" stroke-linecap="butt" d="m287.021 500.11285l167.71652 -1.5433044" fill-rule="evenodd"/><path fill="#000000" fill-opacity="0.0" d="m394.72702 516.6142l60.188995 1.2913208" fill-rule="evenodd"/><path stroke="#000000" stroke-width="1.0" stroke-linejoin="round" stroke-linecap="butt" d="m394.72702 516.6142l60.188995 1.2913208" fill-rule="evenodd"/><path fill="#000000" fill-opacity="0.0" d="m456.6719 479.41733l-209.10236 0.881897" fill-rule="evenodd"/><path stroke="#000000" stroke-width="1.0" stroke-linejoin="round" stroke-linecap="butt" d="m456.6719 479.41733l-209.10236 0.881897" fill-rule="evenodd"/><path fill="#000000" fill-opacity="0.0" d="m247.58267 480.29135l1.7637787 -39.370087" fill-rule="evenodd"/><path stroke="#000000" stroke-width="1.0" stroke-linejoin="round" stroke-linecap="butt" d="m247.58267 480.29135l1.7637787 -39.370087" fill-rule="evenodd"/><path fill="#000000" fill-opacity="0.0" d="m249.3307 440.9239l-221.32283 1.7637634" fill-rule="evenodd"/><path stroke="#000000" stroke-width="1.0" stroke-linejoin="round" stroke-linecap="butt" d="m249.3307 440.9239l-221.32283 1.7637634" fill-rule="evenodd"/><path fill="#000000" fill-opacity="0.0" d="m456.6719 355.18896l-429.5433 -4.3779297" fill-rule="evenodd"/><path stroke="#000000" stroke-width="1.0" stroke-linejoin="round" stroke-linecap="butt" d="m456.6719 355.18896l-429.5433 -4.3779297" fill-rule="evenodd"/><path fill="#000000" fill-opacity="0.0" d="m456.6719 227.45932l-423.43304 -3.4960632" fill-rule="evenodd"/><path stroke="#000000" stroke-width="1.0" stroke-linejoin="round" stroke-linecap="butt" d="m456.6719 227.45932l-423.43304 -3.4960632" fill-rule="evenodd"/><path fill="#000000" fill-opacity="0.0" d="m457.54593 97.98425l-432.18896 -5.259842" fill-rule="evenodd"/><path stroke="#000000" stroke-width="1.0" stroke-linejoin="round" stroke-linecap="butt" d="m457.54593 97.98425l-432.18896 -5.259842" fill-rule="evenodd"/><path fill="#000000" fill-opacity="0.0" d="m555.33594 247.21523l147.9685 0.03149414" fill-rule="evenodd"/><path stroke="#000000" stroke-width="1.0" stroke-linejoin="round" stroke-linecap="butt" d="m555.33594 247.21523l147.9685 0.03149414" fill-rule="evenodd"/><path fill="#000000" fill-opacity="0.0" d="m555.33594 375.19946l60.566956 1.8582764" fill-rule="evenodd"/><path stroke="#000000" stroke-width="1.0" stroke-linejoin="round" stroke-linecap="butt" d="m555.33594 375.19946l60.566956 1.8582764" fill-rule="evenodd"/><path fill="#000000" fill-opacity="0.0" d="m615.8924 377.06036l2.6141968 -115.49606" fill-rule="evenodd"/><path stroke="#000000" stroke-width="1.0" stroke-linejoin="round" stroke-linecap="butt" d="m615.8924 377.06036l2.6141968 -115.49606" fill-rule="evenodd"/><path fill="#000000" fill-opacity="0.0" d="m618.5276 261.5853l85.03937 0.1574707" fill-rule="evenodd"/><path stroke="#000000" stroke-width="1.0" stroke-linejoin="round" stroke-linecap="butt" d="m618.5276 261.5853l85.03937 0.1574707" fill-rule="evenodd"/><path fill="#000000" fill-opacity="0.0" d="m555.33594 498.5643l96.44098 2.7401733" fill-rule="evenodd"/><path stroke="#000000" stroke-width="1.0" stroke-linejoin="round" stroke-linecap="butt" d="m555.33594 498.5643l96.44098 2.7401733" fill-rule="evenodd"/><path fill="#000000" fill-opacity="0.0" d="m651.76117 499.53806l5.2598267 -220.47244" fill-rule="evenodd"/><path stroke="#000000" stroke-width="1.0" stroke-linejoin="round" stroke-linecap="butt" d="m651.76117 499.53806l5.2598267 -220.47244" fill-rule="evenodd"/><path fill="#000000" fill-opacity="0.0" d="m657.0105 279.0761l47.24408 0" fill-rule="evenodd"/><path stroke="#000000" stroke-width="1.0" stroke-linejoin="round" stroke-linecap="butt" d="m657.0105 279.0761l47.24408 0" fill-rule="evenodd"/><path fill="#000000" fill-opacity="0.0" d="m557.5092 119.23097l80.25195 0.62992096" fill-rule="evenodd"/><path stroke="#000000" stroke-width="1.0" stroke-linejoin="round" stroke-linecap="butt" d="m557.5092 119.23097l80.25195 0.62992096" fill-rule="evenodd"/><path fill="#000000" fill-opacity="0.0" d="m637.7638 119.85302l-0.881897 114.614174" fill-rule="evenodd"/><path stroke="#000000" stroke-width="1.0" stroke-linejoin="round" stroke-linecap="butt" d="m637.7638 119.85302l-0.881897 114.614174" fill-rule="evenodd"/><path fill="#000000" fill-opacity="0.0" d="m636.8898 234.45932l66.48816 0" fill-rule="evenodd"/><path stroke="#000000" stroke-width="1.0" stroke-linejoin="round" stroke-linecap="butt" d="m636.8898 234.45932l66.48816 0" fill-rule="evenodd"/><path fill="#000000" fill-opacity="0.0" d="m803.9764 256.32547l130.36218 2.6456604" fill-rule="evenodd"/><path stroke="#000000" stroke-width="1.0" stroke-linejoin="round" stroke-linecap="butt" d="m803.9764 256.32547l130.36218 2.6456604" fill-rule="evenodd"/><path fill="#000000" fill-opacity="0.0" d="m40.244095 580.0236l53.354332 0l0 32.31494l-53.354332 0z" fill-rule="evenodd"/><path fill="#000000" d="m49.994095 596.79486l1.0 -0.09375l-0.015625 0.265625q0 0.4375 0.203125 0.8125q0.203125 0.359375 0.671875 0.5625q0.46875 0.203125 1.109375 0.203125q0.921875 0 1.40625 -0.390625q0.484375 -0.40625 0.484375 -0.921875q0 -0.359375 -0.265625 -0.65625q-0.25 -0.296875 -1.421875 -0.796875q-0.890625 -0.390625 -1.21875 -0.59375q-0.515625 -0.34375 -0.765625 -0.734375q-0.234375 -0.40625 -0.234375 -0.90625q0 -0.59375 0.3125 -1.0625q0.328125 -0.484375 0.9375 -0.734375q0.625 -0.25 1.40625 -0.25q0.9375 0 1.578125 0.3125q0.640625 0.3125 0.921875 0.84375q0.296875 0.515625 0.296875 0.984375q0 0.046875 0 0.15625l-0.984375 0.078125q0 -0.3125 -0.0625 -0.5q-0.109375 -0.3125 -0.328125 -0.53125q-0.21875 -0.21875 -0.609375 -0.34375q-0.375 -0.140625 -0.84375 -0.140625q-0.828125 0 -1.296875 0.375q-0.359375 0.28125 -0.359375 0.75q0 0.28125 0.140625 0.515625q0.15625 0.21875 0.53125 0.421875q0.28125 0.15625 1.296875 0.609375q0.8125 0.359375 1.125 0.5625q0.421875 0.28125 0.640625 0.671875q0.234375 0.390625 0.234375 0.890625q0 0.625 -0.390625 1.15625q-0.375 0.515625 -1.046875 0.796875q-0.65625 0.28125 -1.515625 0.28125q-1.296875 0 -2.125 -0.5625q-0.8125 -0.5625 -0.8125 -2.03125z" fill-rule="nonzero"/><path fill="#000000" d="m57.898605 595.9511q0.21875 -0.21875 0.21875 -0.421875l0.34375 0l0 3.734375l-0.609375 0l0 -2.875l-0.6875 0l0 -0.265625l0.21875 0q0.34375 0 0.515625 -0.171875z" fill-rule="nonzero"/><path fill="#000000" fill-opacity="0.0" d="m40.244095 669.3123l53.354332 0l0 32.315002l-53.354332 0z" fill-rule="evenodd"/><path fill="#000000" d="m49.994095 686.08356l1.0 -0.09375l-0.015625 0.265625q0 0.4375 0.203125 0.8125q0.203125 0.359375 0.671875 0.5625q0.46875 0.203125 1.109375 0.203125q0.921875 0 1.40625 -0.390625q0.484375 -0.40625 0.484375 -0.921875q0 -0.359375 -0.265625 -0.65625q-0.25 -0.296875 -1.421875 -0.796875q-0.890625 -0.390625 -1.21875 -0.59375q-0.515625 -0.34375 -0.765625 -0.734375q-0.234375 -0.40625 -0.234375 -0.90625q0 -0.59375 0.3125 -1.0625q0.328125 -0.484375 0.9375 -0.734375q0.625 -0.25 1.40625 -0.25q0.9375 0 1.578125 0.3125q0.640625 0.3125 0.921875 0.84375q0.296875 0.515625 0.296875 0.984375q0 0.046875 0 0.15625l-0.984375 0.078125q0 -0.3125 -0.0625 -0.5q-0.109375 -0.3125 -0.328125 -0.53125q-0.21875 -0.21875 -0.609375 -0.34375q-0.375 -0.140625 -0.84375 -0.140625q-0.828125 0 -1.296875 0.375q-0.359375 0.28125 -0.359375 0.75q0 0.28125 0.140625 0.515625q0.15625 0.21875 0.53125 0.421875q0.28125 0.15625 1.296875 0.609375q0.8125 0.359375 1.125 0.5625q0.421875 0.28125 0.640625 0.671875q0.234375 0.390625 0.234375 0.890625q0 0.625 -0.390625 1.15625q-0.375 0.515625 -1.046875 0.796875q-0.65625 0.28125 -1.515625 0.28125q-1.296875 0 -2.125 -0.5625q-0.8125 -0.5625 -0.8125 -2.03125z" fill-rule="nonzero"/><path fill="#000000" d="m56.69548 686.4898q0 -0.984375 0.4375 -1.421875q0.296875 -0.296875 0.8125 -0.296875q0.515625 0 0.8125 0.296875q0.4375 0.4375 0.4375 1.421875l0 0.421875q0 0.953125 -0.4375 1.375q-0.296875 0.3125 -0.8125 0.3125q-0.515625 0 -0.8125 -0.3125q-0.4375 -0.421875 -0.4375 -1.375l0 -0.421875zm1.25 -1.25q-0.21875 0 -0.390625 0.171875q-0.25 0.265625 -0.25 1.03125l0 0.46875q0 0.734375 0.296875 1.03125q0.171875 0.171875 0.34375 0.171875q0.171875 0 0.34375 -0.171875q0.296875 -0.296875 0.296875 -1.03125l0 -0.46875q0 -0.734375 -0.296875 -1.03125q-0.171875 -0.171875 -0.34375 -0.171875z" fill-rule="nonzero"/><path fill="#000000" fill-opacity="0.0" d="m48.984253 60.40945l35.874016 0l0 32.31496l-35.874016 0z" fill-rule="evenodd"/><path fill="#000000" d="m58.421753 75.88383q0 -1.34375 0.28125 -2.171875q0.28125 -0.828125 0.828125 -1.265625q0.546875 -0.453125 1.375 -0.453125q0.625 0 1.078125 0.25q0.46875 0.234375 0.765625 0.703125q0.3125 0.46875 0.484375 1.140625q0.171875 0.671875 0.171875 1.796875q0 1.34375 -0.28125 2.171875q-0.28125 0.828125 -0.828125 1.28125q-0.546875 0.4375 -1.390625 0.4375q-1.09375 0 -1.71875 -0.78125q-0.765625 -0.953125 -0.765625 -3.109375zm0.96875 0q0 1.875 0.4375 2.5q0.4375 0.625 1.078125 0.625q0.65625 0 1.09375 -0.625q0.4375 -0.625 0.4375 -2.5q0 -1.875 -0.4375 -2.5q-0.4375 -0.625 -1.09375 -0.625q-0.640625 0 -1.03125 0.546875q-0.484375 0.703125 -0.484375 2.578125z" fill-rule="nonzero"/><path fill="#000000" fill-opacity="0.0" d="m475.29398 102.94751l35.873993 0l0 32.314957l-35.873993 0z" fill-rule="evenodd"/><path fill="#000000" d="m484.73148 118.42188q0 -1.34375 0.28125 -2.171875q0.28125 -0.828125 0.828125 -1.265625q0.546875 -0.453125 1.375 -0.453125q0.625 0 1.078125 0.25q0.46875 0.234375 0.765625 0.703125q0.3125 0.46875 0.484375 1.140625q0.171875 0.671875 0.171875 1.796875q0 1.34375 -0.28125 2.171875q-0.28125 0.828125 -0.828125 1.28125q-0.546875 0.4375 -1.390625 0.4375q-1.09375 0 -1.71875 -0.78125q-0.765625 -0.953125 -0.765625 -3.109375zm0.96875 0q0 1.875 0.4375 2.5q0.4375 0.625 1.078125 0.625q0.65625 0 1.09375 -0.625q0.4375 -0.625 0.4375 -2.5q0 -1.875 -0.4375 -2.5q-0.4375 -0.625 -1.09375 -0.625q-0.640625 0 -1.03125 0.546875q-0.484375 0.703125 -0.484375 2.578125z" fill-rule="nonzero"/><path fill="#000000" fill-opacity="0.0" d="m48.984253 191.6483l35.874016 0l0 32.314957l-35.874016 0z" fill-rule="evenodd"/><path fill="#000000" d="m61.953003 210.88829l-0.9375 0l0 -5.96875q-0.34375 0.328125 -0.890625 0.65625q-0.546875 0.3125 -0.984375 0.46875l0 -0.90625q0.796875 -0.359375 1.375 -0.890625q0.59375 -0.53125 0.828125 -1.015625l0.609375 0l0 7.65625z" fill-rule="nonzero"/><path fill="#000000" fill-opacity="0.0" d="m475.29398 231.05774l35.873993 0l0 32.314972l-35.873993 0z" fill-rule="evenodd"/><path fill="#000000" d="m488.26273 250.29774l-0.9375 0l0 -5.96875q-0.34375 0.328125 -0.890625 0.65625q-0.546875 0.3125 -0.984375 0.46875l0 -0.90625q0.796875 -0.359375 1.375 -0.890625q0.59375 -0.53125 0.828125 -1.015625l0.609375 0l0 7.65625z" fill-rule="nonzero"/><path fill="#000000" fill-opacity="0.0" d="m48.984253 318.03412l35.874016 0l0 32.314972l-35.874016 0z" fill-rule="evenodd"/><path fill="#000000" d="m63.343628 336.36786l0 0.90625l-5.03125 0q-0.015625 -0.34375 0.109375 -0.65625q0.1875 -0.515625 0.609375 -1.015625q0.421875 -0.5 1.234375 -1.140625q1.234375 -1.03125 1.671875 -1.625q0.4375 -0.59375 0.4375 -1.125q0 -0.5625 -0.40625 -0.9375q-0.390625 -0.390625 -1.03125 -0.390625q-0.671875 0 -1.078125 0.40625q-0.40625 0.40625 -0.40625 1.125l-0.96875 -0.09375q0.09375 -1.078125 0.734375 -1.640625q0.65625 -0.5625 1.734375 -0.5625q1.109375 0 1.75 0.609375q0.640625 0.609375 0.640625 1.5q0 0.46875 -0.1875 0.90625q-0.1875 0.4375 -0.625 0.9375q-0.4375 0.484375 -1.453125 1.328125q-0.828125 0.71875 -1.078125 0.96875q-0.234375 0.25 -0.390625 0.5l3.734375 0z" fill-rule="nonzero"/><path fill="#000000" fill-opacity="0.0" d="m475.29398 359.16797l35.873993 0l0 32.314972l-35.873993 0z" fill-rule="evenodd"/><path fill="#000000" d="m489.65335 377.50174l0 0.90625l-5.03125 0q-0.015625 -0.34375 0.109375 -0.65625q0.1875 -0.515625 0.609375 -1.015625q0.421875 -0.5 1.234375 -1.140625q1.234375 -1.03125 1.671875 -1.625q0.4375 -0.59375 0.4375 -1.125q0 -0.5625 -0.40625 -0.9375q-0.390625 -0.390625 -1.03125 -0.390625q-0.671875 0 -1.078125 0.40625q-0.40625 0.40625 -0.40625 1.125l-0.96875 -0.09375q0.09375 -1.078125 0.734375 -1.640625q0.65625 -0.5625 1.734375 -0.5625q1.109375 0 1.75 0.609375q0.640625 0.609375 0.640625 1.5q0 0.46875 -0.1875 0.90625q-0.1875 0.4375 -0.625 0.9375q-0.4375 0.484375 -1.453125 1.328125q-0.828125 0.71875 -1.078125 0.96875q-0.234375 0.25 -0.390625 0.5l3.734375 0z" fill-rule="nonzero"/><path fill="#000000" fill-opacity="0.0" d="m48.984253 410.3727l35.874016 0l0 32.31494l-35.874016 0z" fill-rule="evenodd"/><path fill="#000000" d="m58.437378 427.59708l0.9375 -0.125q0.15625 0.796875 0.546875 1.15625q0.390625 0.34375 0.9375 0.34375q0.65625 0 1.109375 -0.453125q0.46875 -0.46875 0.46875 -1.140625q0 -0.640625 -0.421875 -1.0625q-0.421875 -0.421875 -1.078125 -0.421875q-0.265625 0 -0.65625 0.109375l0.109375 -0.828125q0.09375 0.015625 0.140625 0.015625q0.59375 0 1.078125 -0.3125q0.484375 -0.3125 0.484375 -0.96875q0 -0.515625 -0.359375 -0.84375q-0.34375 -0.34375 -0.890625 -0.34375q-0.546875 0 -0.921875 0.34375q-0.359375 0.34375 -0.453125 1.03125l-0.9375 -0.171875q0.171875 -0.9375 0.78125 -1.453125q0.609375 -0.515625 1.5 -0.515625q0.625 0 1.15625 0.265625q0.53125 0.265625 0.796875 0.734375q0.28125 0.453125 0.28125 0.984375q0 0.484375 -0.265625 0.890625q-0.265625 0.40625 -0.78125 0.65625q0.671875 0.15625 1.046875 0.65625q0.375 0.484375 0.375 1.21875q0 1.0 -0.734375 1.703125q-0.71875 0.6875 -1.828125 0.6875q-1.0 0 -1.671875 -0.59375q-0.65625 -0.609375 -0.75 -1.5625z" fill-rule="nonzero"/><path fill="#000000" fill-opacity="0.0" d="m475.90814 482.40683l35.874023 0l0 32.314972l-35.874023 0z" fill-rule="evenodd"/><path fill="#000000" d="m485.36127 499.6312l0.9375 -0.125q0.15625 0.796875 0.546875 1.15625q0.390625 0.34375 0.9375 0.34375q0.65625 0 1.109375 -0.453125q0.46875 -0.46875 0.46875 -1.140625q0 -0.640625 -0.421875 -1.0625q-0.421875 -0.421875 -1.078125 -0.421875q-0.265625 0 -0.65625 0.109375l0.109375 -0.828125q0.09375 0.015625 0.140625 0.015625q0.59375 0 1.078125 -0.3125q0.484375 -0.3125 0.484375 -0.96875q0 -0.515625 -0.359375 -0.84375q-0.34375 -0.34375 -0.890625 -0.34375q-0.546875 0 -0.921875 0.34375q-0.359375 0.34375 -0.453125 1.03125l-0.9375 -0.171875q0.171875 -0.9375 0.78125 -1.453125q0.609375 -0.515625 1.5 -0.515625q0.625 0 1.15625 0.265625q0.53125 0.265625 0.796875 0.734375q0.28125 0.453125 0.28125 0.984375q0 0.484375 -0.265625 0.890625q-0.265625 0.40625 -0.78125 0.65625q0.671875 0.15625 1.046875 0.65625q0.375 0.484375 0.375 1.21875q0 1.0 -0.734375 1.703125q-0.71875 0.6875 -1.828125 0.6875q-1.0 0 -1.671875 -0.59375q-0.65625 -0.609375 -0.75 -1.5625z" fill-rule="nonzero"/><path fill="#000000" fill-opacity="0.0" d="m842.4803 223.96326l53.35437 0l0 32.314972l-53.35437 0z" fill-rule="evenodd"/><path fill="#000000" d="m851.9959 239.4845q0 -1.890625 1.015625 -2.96875q1.03125 -1.078125 2.640625 -1.078125q1.046875 0 1.890625 0.515625q0.859375 0.5 1.296875 1.40625q0.453125 0.890625 0.453125 2.046875q0 1.15625 -0.46875 2.078125q-0.46875 0.90625 -1.328125 1.375q-0.859375 0.46875 -1.859375 0.46875q-1.078125 0 -1.921875 -0.515625q-0.84375 -0.515625 -1.28125 -1.40625q-0.4375 -0.90625 -0.4375 -1.921875zm1.046875 0.015625q0 1.375 0.734375 2.171875q0.734375 0.796875 1.859375 0.796875q1.140625 0 1.875 -0.796875q0.734375 -0.8125 0.734375 -2.28125q0 -0.921875 -0.3125 -1.609375q-0.3125 -0.703125 -0.921875 -1.078125q-0.609375 -0.390625 -1.359375 -0.390625q-1.078125 0 -1.84375 0.734375q-0.765625 0.734375 -0.765625 2.453125zm11.054443 3.703125l0 -0.8125q-0.65625 0.9375 -1.75 0.9375q-0.5 0 -0.921875 -0.1875q-0.421875 -0.1875 -0.625 -0.46875q-0.203125 -0.28125 -0.296875 -0.703125q-0.046875 -0.265625 -0.046875 -0.875l0 -3.421875l0.9375 0l0 3.0625q0 0.734375 0.046875 1.0q0.09375 0.359375 0.375 0.578125q0.296875 0.203125 0.703125 0.203125q0.421875 0 0.796875 -0.203125q0.375 -0.21875 0.515625 -0.59375q0.15625 -0.375 0.15625 -1.078125l0 -2.96875l0.9375 0l0 5.53125l-0.828125 0zm4.3483276 -0.84375l0.125 0.828125q-0.390625 0.09375 -0.703125 0.09375q-0.5 0 -0.78125 -0.15625q-0.28125 -0.171875 -0.40625 -0.4375q-0.109375 -0.265625 -0.109375 -1.109375l0 -3.171875l-0.6875 0l0 -0.734375l0.6875 0l0 -1.359375l0.9375 -0.5625l0 1.921875l0.9375 0l0 0.734375l-0.9375 0l0 3.234375q0 0.390625 0.046875 0.515625q0.046875 0.109375 0.15625 0.1875q0.109375 0.0625 0.328125 0.0625q0.15625 0 0.40625 -0.046875zm0.91381836 2.96875l0 -7.65625l0.859375 0l0 0.71875q0.296875 -0.421875 0.671875 -0.625q0.390625 -0.21875 0.921875 -0.21875q0.703125 0 1.25 0.375q0.546875 0.359375 0.8125 1.03125q0.28125 0.65625 0.28125 1.453125q0 0.84375 -0.3125 1.53125q-0.296875 0.671875 -0.875 1.03125q-0.578125 0.359375 -1.21875 0.359375q-0.46875 0 -0.84375 -0.1875q-0.375 -0.203125 -0.609375 -0.515625l0 2.703125l-0.9375 0zm0.84375 -4.859375q0 1.0625 0.4375 1.578125q0.4375 0.515625 1.046875 0.515625q0.625 0 1.0625 -0.53125q0.453125 -0.53125 0.453125 -1.640625q0 -1.046875 -0.4375 -1.578125q-0.4375 -0.53125 -1.046875 -0.53125q-0.59375 0 -1.0625 0.5625q-0.453125 0.5625 -0.453125 1.625zm8.707703 2.734375l0 -0.8125q-0.65625 0.9375 -1.75 0.9375q-0.5 0 -0.921875 -0.1875q-0.421875 -0.1875 -0.625 -0.46875q-0.203125 -0.28125 -0.296875 -0.703125q-0.046875 -0.265625 -0.046875 -0.875l0 -3.421875l0.9375 0l0 3.0625q0 0.734375 0.046875 1.0q0.09375 0.359375 0.375 0.578125q0.296875 0.203125 0.703125 0.203125q0.421875 0 0.796875 -0.203125q0.375 -0.21875 0.515625 -0.59375q0.15625 -0.375 0.15625 -1.078125l0 -2.96875l0.9375 0l0 5.53125l-0.828125 0zm4.3483887 -0.84375l0.125 0.828125q-0.390625 0.09375 -0.703125 0.09375q-0.5 0 -0.78125 -0.15625q-0.28125 -0.171875 -0.40625 -0.4375q-0.109375 -0.265625 -0.109375 -1.109375l0 -3.171875l-0.6875 0l0 -0.734375l0.6875 0l0 -1.359375l0.9375 -0.5625l0 1.921875l0.9375 0l0 0.734375l-0.9375 0l0 3.234375q0 0.390625 0.046875 0.515625q0.046875 0.109375 0.15625 0.1875q0.109375 0.0625 0.328125 0.0625q0.15625 0 0.40625 -0.046875z" fill-rule="nonzero"/></g></svg>