<svg version="1.1" viewBox="0.0 0.0 139.0997375328084 100.0" fill="none" stroke="none" stroke-linecap="square" stroke-miterlimit="10" xmlns:xlink="http://www.w3.org/1999/xlink" xmlns="http://www.w3.org/2000/svg"><clipPath id="p.0"><path d="m0 0l139.09973 0l0 100.0l-139.09973 0l0 -100.0z" clip-rule="nonzero"/></clipPath><g clip-path="url(#p.0)"><path fill="#000000" fill-opacity="0.0" d="m0 0l139.09973 0l0 100.0l-139.09973 0z" fill-rule="evenodd"/><path fill="#000000" fill-opacity="0.0" d="m122.54593 33.53281l27.244095 0l0 29.070866l-27.244095 0z" fill-rule="evenodd"/><path fill="#000000" d="m131.60843 50.21281l1.515625 -2.15625l-1.40625 -2.0l0.875 0l0.640625 0.984375q0.1875 0.265625 0.296875 0.453125q0.171875 -0.25 0.3125 -0.453125l0.703125 -0.984375l0.828125 0l-1.421875 1.953125l1.53125 2.203125l-0.859375 0l-0.84375 -1.296875l-0.234375 -0.34375l-1.09375 1.640625l-0.84375 0zm4.4375 -3.703125l0.046875 -1.0625l0.203125 -0.96875l0.8125 0l-0.21875 0.96875l-0.40625 1.0625l-0.4375 0z" fill-rule="nonzero"/><path fill="#000000" fill-opacity="0.0" d="m8.303149 45.10417l37.19685 -0.12598419" fill-rule="evenodd"/><path stroke="#000000" stroke-width="1.0" stroke-linejoin="round" stroke-linecap="butt" d="m8.303149 45.10417l37.19685 -0.12598419" fill-rule="evenodd"/><path fill="#000000" fill-opacity="0.0" d="m41.808594 58.530388c0.63643265 -2.2787933 3.7775764 -9.361477 3.8185997 -13.672752c0.04101944 -4.3112755 -2.977066 -10.162422 -3.5724792 -12.194904" fill-rule="evenodd"/><path stroke="#000000" stroke-width="1.0" stroke-linejoin="round" stroke-linecap="butt" d="m41.808594 58.530388c0.63643265 -2.2787933 3.7775764 -9.361477 3.8185997 -13.672752c0.04101944 -4.3112755 -2.977066 -10.162422 -3.5724792 -12.194904" fill-rule="evenodd"/><path fill="#000000" fill-opacity="0.0" d="m42.178154 32.786163c6.569496 2.0119133 39.437553 7.780773 39.416977 12.071476c-0.020568848 4.2907066 -32.95034 11.393959 -39.54041 13.672752" fill-rule="evenodd"/><path stroke="#000000" stroke-width="1.0" stroke-linejoin="round" stroke-linecap="butt" d="m42.178154 32.786163c6.569496 2.0119133 39.437553 7.780773 39.416977 12.071476c-0.020568848 4.2907066 -32.95034 11.393959 -39.54041 13.672752" fill-rule="evenodd"/><path fill="#000000" fill-opacity="0.0" d="m128.8118 53.54934l0 0c0 -0.5479355 0.4441986 -0.99212646 0.99212646 -0.99212646l0 0c0.26313782 0 0.5154877 0.10452652 0.7015381 0.29058838c0.18606567 0.18605804 0.29058838 0.4384079 0.29058838 0.7015381l0 0c0 0.5479355 -0.44418335 0.99212646 -0.99212646 0.99212646l0 0c-0.54792786 0 -0.99212646 -0.44419098 -0.99212646 -0.99212646z" fill-rule="evenodd"/><path stroke="#000000" stroke-width="1.0" stroke-linejoin="round" stroke-linecap="butt" d="m128.8118 53.54934l0 0c0 -0.5479355 0.4441986 -0.99212646 0.99212646 -0.99212646l0 0c0.26313782 0 0.5154877 0.10452652 0.7015381 0.29058838c0.18606567 0.18605804 0.29058838 0.4384079 0.29058838 0.7015381l0 0c0 0.5479355 -0.44418335 0.99212646 -0.99212646 0.99212646l0 0c-0.54792786 0 -0.99212646 -0.44419098 -0.99212646 -0.99212646z" fill-rule="evenodd"/><path fill="#000000" fill-opacity="0.0" d="m40.030006 58.530388c0.63643265 -2.2787933 3.7775764 -9.361477 3.8185997 -13.672752c0.04101944 -4.3112755 -2.977066 -10.162422 -3.5724792 -12.194904" fill-rule="evenodd"/><path stroke="#000000" stroke-width="1.0" stroke-linejoin="round" stroke-linecap="butt" d="m40.030006 58.530388c0.63643265 -2.2787933 3.7775764 -9.361477 3.8185997 -13.672752c0.04101944 -4.3112755 -2.977066 -10.162422 -3.5724792 -12.194904" fill-rule="evenodd"/><path fill="#000000" fill-opacity="0.0" d="m89.023026 67.33641c0.63643646 -2.2787933 3.7775803 -9.361477 3.818596 -13.672752c0.041023254 -4.3112793 -2.9770584 -10.162422 -3.5724716 -12.194908" fill-rule="evenodd"/><path stroke="#000000" stroke-width="1.0" stroke-linejoin="round" stroke-linecap="butt" d="m89.023026 67.33641c0.63643646 -2.2787933 3.7775803 -9.361477 3.818596 -13.672752c0.041023254 -4.3112793 -2.9770584 -10.162422 -3.5724716 -12.194908" fill-rule="evenodd"/><path fill="#000000" fill-opacity="0.0" d="m89.392586 41.592186c6.569496 2.0119133 39.437553 7.7807693 39.416985 12.071476c-0.020584106 4.290703 -32.950348 11.393955 -39.540413 13.672749" fill-rule="evenodd"/><path stroke="#000000" stroke-width="1.0" stroke-linejoin="round" stroke-linecap="butt" d="m89.392586 41.592186c6.569496 2.0119133 39.437553 7.7807693 39.416985 12.071476c-0.020584106 4.290703 -32.950348 11.393955 -39.540413 13.672749" fill-rule="evenodd"/><path fill="#000000" fill-opacity="0.0" d="m86.90323 67.33641c0.63643646 -2.2787933 3.7775803 -9.361477 3.8186035 -13.672752c0.041015625 -4.3112793 -2.977066 -10.162422 -3.5724792 -12.194908" fill-rule="evenodd"/><path stroke="#000000" stroke-width="1.0" stroke-linejoin="round" stroke-linecap="butt" d="m86.90323 67.33641c0.63643646 -2.2787933 3.7775803 -9.361477 3.8186035 -13.672752c0.041015625 -4.3112793 -2.977066 -10.162422 -3.5724792 -12.194908" fill-rule="evenodd"/><path fill="#000000" d="m28.207516 45.049686l0 0c0 -0.5479355 0.44418907 -0.99212646 0.99212646 -0.99212646l0 0c0.26312828 0 0.51547813 0.104530334 0.7015381 0.29058838c0.18605995 0.18606186 0.29058838 0.4384117 0.29058838 0.7015381l0 0c0 0.5479355 -0.44419098 0.99212646 -0.99212646 0.99212646l0 0c-0.5479374 0 -0.99212646 -0.44419098 -0.99212646 -0.99212646z" fill-rule="evenodd"/><path stroke="#000000" stroke-width="1.0" stroke-linejoin="round" stroke-linecap="butt" d="m28.207516 45.049686l0 0c0 -0.5479355 0.44418907 -0.99212646 0.99212646 -0.99212646l0 0c0.26312828 0 0.51547813 0.104530334 0.7015381 0.29058838c0.18605995 0.18606186 0.29058838 0.4384117 0.29058838 0.7015381l0 0c0 0.5479355 -0.44419098 0.99212646 -0.99212646 0.99212646l0 0c-0.5479374 0 -0.99212646 -0.44419098 -0.99212646 -0.99212646z" fill-rule="evenodd"/><path fill="#000000" fill-opacity="0.0" d="m81.719696 44.858044l9.007874 0.37795258" fill-rule="evenodd"/><path stroke="#000000" stroke-width="1.0" stroke-linejoin="round" stroke-linecap="butt" d="m81.719696 44.858044l9.007874 0.37795258" fill-rule="evenodd"/><path fill="#000000" fill-opacity="0.0" d="m29.199642 46.041813l0.28346443 15.937008" fill-rule="evenodd"/><path stroke="#000000" stroke-width="1.0" stroke-linejoin="round" stroke-linecap="butt" d="m29.199642 46.041813l0.28346443 15.937008" fill-rule="evenodd"/><path fill="#000000" fill-opacity="0.0" d="m29.736773 62.22691l61.102364 0.37795258" fill-rule="evenodd"/><path stroke="#000000" stroke-width="1.0" stroke-linejoin="round" stroke-linecap="butt" d="m29.736773 62.22691l61.102364 0.37795258" fill-rule="evenodd"/><path fill="#000000" fill-opacity="0.0" d="m130.79605 53.54934l7.3700867 0.03149414" fill-rule="evenodd"/><path stroke="#000000" stroke-width="1.0" stroke-linejoin="round" stroke-linecap="butt" d="m130.79605 53.54934l7.3700867 0.03149414" fill-rule="evenodd"/><path fill="#000000" fill-opacity="0.0" d="m-7.4120736 30.514435l18.362206 0l0 29.070866l-18.362206 0z" fill-rule="evenodd"/><path fill="#000000" d="m1.5723015 47.194435l1.8125001 -2.109375l-1.03125 -2.046875l0.78125 0l0.34375 0.75q0.203125 0.40625 0.359375 0.78125l1.1874998 -1.53125l0.859375 0l-1.734375 2.109375l1.046875 2.046875l-0.78125 0l-0.42187476 -0.84375q-0.125 -0.265625 -0.296875 -0.671875l-1.234375 1.515625l-0.8906251 0z" fill-rule="nonzero"/><path fill="#000000" fill-opacity="0.0" d="m71.5958 25.469816l17.795273 0l0 29.070868l-17.795273 0z" fill-rule="evenodd"/><path fill="#000000" d="m80.7192 39.321693q0 -1.015625 0.203125 -1.625q0.21875 -0.625 0.625 -0.953125q0.421875 -0.34375 1.046875 -0.34375q0.453125 0 0.796875 0.1875q0.359375 0.1875 0.578125 0.53125q0.234375 0.34375 0.359375 0.859375q0.125 0.5 0.125 1.34375q0 1.015625 -0.203125 1.640625q-0.203125 0.609375 -0.625 0.953125q-0.40625 0.328125 -1.03125 0.328125q-0.828125 0 -1.296875 -0.59375q-0.578125 -0.71875 -0.578125 -2.328125zm0.734375 0q0 1.40625 0.328125 1.875q0.328125 0.46875 0.8125 0.46875q0.484375 0 0.8125 -0.46875q0.328125 -0.46875 0.328125 -1.875q0 -1.40625 -0.328125 -1.875q-0.328125 -0.46875 -0.828125 -0.46875q-0.484375 0 -0.765625 0.40625q-0.359375 0.53125 -0.359375 1.9375z" fill-rule="nonzero"/></g></svg>